<svg width="0" height="0" class="hidden">
  <symbol xmlns="http://www.w3.org/2000/svg" viewBox="0 -10 511.991 511" id="star">
    <path d="M510.652 185.883a27.177 27.177 0 00-23.402-18.688l-147.797-13.418-58.41-136.75C276.73 6.98 266.918.497 255.996.497s-20.738 6.483-25.023 16.53l-58.41 136.75-147.82 13.418c-10.837 1-20.013 8.34-23.403 18.688a27.25 27.25 0 007.937 28.926L121 312.773 88.059 457.86c-2.41 10.668 1.73 21.7 10.582 28.098a27.087 27.087 0 0015.957 5.184 27.14 27.14 0 0013.953-3.86l127.445-76.203 127.422 76.203a27.197 27.197 0 0029.934-1.324c8.851-6.398 12.992-17.43 10.582-28.098l-32.942-145.086 111.723-97.964a27.246 27.246 0 007.937-28.926zM258.45 409.605"></path>
  </symbol>
  <symbol xmlns="http://www.w3.org/2000/svg" viewBox="0 0 470.311 470.311" id="security">
    <path d="M449.864 113.768c-1.991-3.495-5.324-5.422-9.38-5.422-17.615 0-58.241-26.524-97.543-52.161C298.672 27.304 256.851 0 234.156 0c-23.955 0-72.905 31.173-120.335 61.371-36.245 23.101-73.742 46.975-85.992 46.975-3.422 0-6.324 1.756-7.95 4.828-1.065 2-1.585 4.544-1.585 7.73 0 45.349 143.469 349.407 215.862 349.407 68.345 0 217.862-290.905 217.862-346.537 0-4.211-.691-7.478-2.154-10.006zM263.224 97.99l-5.682 195.313H212.77l-.024-.967-5.658-194.346h56.136zm-28.068 284.045c-18.119 0-31.766-14.095-31.766-32.839 0-18.777 13.648-32.872 31.766-32.872 18.72 0 31.775 13.493 31.775 32.872-.009 19.045-13.364 32.839-31.775 32.839z"></path>
  </symbol>
  <symbol xmlns="http://www.w3.org/2000/svg" viewBox="0 0 481.8 481.8" id="two">
    <path d="M481.143 368.863l-11.952-60.019c-4.74-23.763-23.338-42.327-47.099-47.027l-16.173-3.19c-9.29-1.835-16.582-9.062-18.517-18.337l-3.087-14.849c-.975-4.764.74-9.686 4.487-12.779 14.614-12.094 27.983-29.879 35.715-50.879 10.739-1.929 20.518-12.25 23.683-26.454 3.905-17.606-3.843-34.296-17.321-37.288-.142-.023-.284-.009-.456-.023-4.063-45.714-21.669-79.561-80.215-79.561-57.57 0-75.838 33.84-80.137 79.529-.189.047-.394.032-.535.056-13.463 2.992-21.211 19.683-17.306 37.288 3.133 14.204 12.93 24.525 23.668 26.454 7.746 21.008 21.115 38.793 35.697 50.879a13.12 13.12 0 014.473 12.763l-3.07 14.85a23.57 23.57 0 01-18.519 18.353l-16.141 3.19c-21.116 4.171-38.076 19.296-44.956 39.271 20.831 11.826 36.043 32.124 40.91 56.555l10.408 52.178h162.838a34.258 34.258 0 0026.486-12.535 34.291 34.291 0 007.119-28.425z"></path>
    <path d="M250.578 362.368c-4.741-23.77-23.338-42.336-47.115-47.036l-16.157-3.189a23.584 23.584 0 01-18.518-18.337l-3.086-14.857a13.147 13.147 0 014.487-12.778c14.614-12.086 27.982-29.881 35.699-50.879 10.755-1.929 20.533-12.252 23.698-26.454 3.905-17.605-3.843-34.298-17.321-37.297-.143-.024-.284-.008-.473-.024-4.047-45.712-21.652-79.553-80.215-79.553-57.556 0-75.821 33.833-80.12 79.53-.205.039-.394.023-.536.047-13.479 2.999-21.227 19.691-17.32 37.297 3.133 14.202 12.928 24.525 23.668 26.454 7.746 21.006 21.115 38.793 35.713 50.887a13.119 13.119 0 014.473 12.763l-3.072 14.85a23.567 23.567 0 01-18.518 18.352l-16.141 3.189c-23.777 4.7-42.374 23.267-47.115 47.036L.658 422.389a34.289 34.289 0 007.117 28.423 34.263 34.263 0 0026.486 12.534h194.664c10.25 0 19.982-4.6 26.486-12.534a34.288 34.288 0 007.117-28.423l-11.95-60.021z"></path>
  </symbol>
  <symbol xmlns="http://www.w3.org/2000/svg" viewBox="0 0 511.999 511.999" id="door">
    <path d="M96.478 0v447.146l252.069 64.853v-61.136h66.973V0H96.478zm179.507 276.047c-8.177 0-14.806-6.629-14.806-14.806s6.629-14.806 14.806-14.806 14.806 6.629 14.806 14.806-6.629 14.806-14.806 14.806zm106.458 141.737h-33.895V60.06L243.68 33.079h138.763v384.705z"></path>
  </symbol>
  <symbol xmlns="http://www.w3.org/2000/svg" viewBox="0 0 31.217 31.217" id="briefcase">
    <path d="M29.066 8.165h-8.303v-1.04c0-4.429-4.201-4.169-4.201-4.169h-1.986c-4.428 0-4.199 4.2-4.199 4.2v1.009H2.042C-.076 8.165 0 10.25 0 10.25v4.07s8.889 3.234 15.543 3.234c7.271 0 15.671-3.266 15.671-3.266V10.25c.001-2.184-2.148-2.085-2.148-2.085zM13.18 7.038c0-2.085 2.447-2.116 2.447-2.116 2.482 0 2.406 2.148 2.406 2.148v1.043H13.18V7.038zm5.009 9.743l-5.164.004v-1.991h5.164v1.987z"></path>
    <path d="M31.215 26.178V15.791s-6.762 3.114-15.716 3.114C7.262 18.905 0 15.694 0 15.694v10.483c0 2.117 2.008 2.086 2.008 2.086H29.1c2.246.001 2.115-2.085 2.115-2.085zm-13.026-5.493c0 .715-.576 1.292-1.289 1.292h-2.584a1.29 1.29 0 01-1.291-1.292v-1.332h5.164v1.332z"></path>
  </symbol>
  <symbol xmlns="http://www.w3.org/2000/svg" viewBox="0 0 512.001 512.001" id="instagram">
    <path d="M373.406 0H138.594C62.172 0 0 62.172 0 138.594V373.41C0 449.828 62.172 512 138.594 512H373.41C449.828 512 512 449.828 512 373.41V138.594C512 62.172 449.828 0 373.406 0zm108.578 373.41c0 59.867-48.707 108.574-108.578 108.574H138.594c-59.871 0-108.578-48.707-108.578-108.574V138.594c0-59.871 48.707-108.578 108.578-108.578H373.41c59.867 0 108.574 48.707 108.574 108.578zm0 0"></path>
    <path d="M256 116.004c-77.195 0-139.996 62.8-139.996 139.996S178.804 395.996 256 395.996 395.996 333.196 395.996 256 333.196 116.004 256 116.004zm0 249.976c-60.64 0-109.98-49.335-109.98-109.98 0-60.64 49.34-109.98 109.98-109.98 60.645 0 109.98 49.34 109.98 109.98 0 60.645-49.335 109.98-109.98 109.98zM399.344 66.285c-22.813 0-41.367 18.559-41.367 41.367 0 22.813 18.554 41.371 41.367 41.371s41.37-18.558 41.37-41.37-18.558-41.368-41.37-41.368zm0 52.719c-6.258 0-11.352-5.094-11.352-11.352 0-6.261 5.094-11.351 11.352-11.351 6.261 0 11.355 5.09 11.355 11.351 0 6.258-5.094 11.352-11.355 11.352zm0 0"></path>
  </symbol>
  <symbol xmlns="http://www.w3.org/2000/svg" viewBox="0 0 48.605 48.605" id="facebook">
    <path d="M34.094 8.688h4.756V.005h-8.643c-.721-.03-9.51-.198-11.788 8.489-.033.091-.761 2.157-.761 6.983l-7.903.024v9.107l7.913-.023v24.021h12.087v-24h8v-9.131h-8v-2.873c0-1.786.753-3.914 4.339-3.914zm1.661 8.786v5.131h-8v24h-8.087V22.579l-7.913.023v-5.107l7.934-.023-.021-1.017c-.104-5.112.625-7.262.658-7.365 1.966-7.482 9.473-7.106 9.795-7.086l6.729.002v4.683h-2.756c-4.673 0-6.338 3.054-6.338 5.912v4.873h7.999z"></path>
  </symbol>
  <symbol xmlns="http://www.w3.org/2000/svg" viewBox="0 0 24 24" id="twitter">
    <path d="M.473 19.595a13.928 13.928 0 007.478 2.155c3.91 0 7.493-1.502 10.09-4.229 2.485-2.61 3.852-6.117 3.784-9.676.942-.806 2.05-2.345 2.05-3.845a.75.75 0 00-1.13-.647c-.885.52-1.692.656-2.522.423-1.695-1.652-4.218-2-6.344-.854-1.858 1-2.891 2.83-2.798 4.83A12.427 12.427 0 013.02 3.349a.75.75 0 00-1.226.1C.82 5.117.83 7.05 1.677 8.611a.78.78 0 00-.652.777 5.29 5.29 0 001.843 3.995.749.749 0 00-.192.777 5.384 5.384 0 003.047 3.264 8.732 8.732 0 01-4.756.794c-.784-.106-1.171.948-.494 1.377zm7.683-1.914c.561-.431.263-1.329-.441-1.344a3.912 3.912 0 01-3.072-1.598 5.29 5.29 0 001.024-.164c.761-.206.725-1.304-.048-1.459a3.85 3.85 0 01-2.917-2.62c.377.093.761.145 1.144.152.759.004 1.046-.969.427-1.376-1.395-.919-1.99-2.542-1.596-4.068a13.943 13.943 0 009.237 4.123.749.749 0 00.767-.917c-.475-2.059.675-3.502 1.91-4.167 1.222-.66 3.184-.866 4.688.712.447.471 1.955.489 2.722.31-.344.648-.873 1.263-1.368 1.609a.75.75 0 00-.319.651c.161 3.285-1.063 6.551-3.358 8.96-2.312 2.427-5.509 3.764-9.004 3.764-1.39 0-2.753-.226-4.041-.662 1.54-.298 3.003-.95 4.245-1.906z"></path>
  </symbol>
  <symbol xmlns="http://www.w3.org/2000/svg" viewBox="0 0 512.003 512.003" id="apple">
    <path d="M351.98 0c-27.296 1.888-59.2 19.36-77.792 42.112-16.96 20.64-30.912 51.296-25.472 81.088 29.824.928 60.64-16.96 78.496-40.096 16.704-21.536 29.344-52 24.768-83.104z"></path>
    <path d="M459.852 171.776c-26.208-32.864-63.04-51.936-97.824-51.936-45.92 0-65.344 21.984-97.248 21.984-32.896 0-57.888-21.92-97.6-21.92-39.008 0-80.544 23.84-106.88 64.608-37.024 57.408-30.688 165.344 29.312 257.28 21.472 32.896 50.144 69.888 87.648 70.208 33.376.32 42.784-21.408 88-21.632 45.216-.256 53.792 21.92 87.104 21.568 37.536-.288 67.776-41.28 89.248-74.176 15.392-23.584 21.12-35.456 33.056-62.08-86.816-33.056-100.736-156.512-14.816-203.904z"></path>
  </symbol>
  <symbol xmlns="http://www.w3.org/2000/svg" viewBox="0 0 469.847 469.847" id="google">
    <path d="M270.336 234.965L34.39 462.165a40.146 40.146 0 01-17.493-33.493V41.258A40.146 40.146 0 0134.39 7.765l235.946 227.2z" fill="#2196f3"></path>
    <path d="M352.896 155.605l-82.56 79.36L34.39 7.765a31.446 31.446 0 012.773-1.92 40.363 40.363 0 0140.747-.64l274.986 150.4z" fill="#4caf50"></path>
    <path d="M452.95 234.965a40.79 40.79 0 01-21.333 36.267l-78.72 43.093-82.56-79.36 82.56-79.36 78.72 43.093a40.79 40.79 0 0121.333 36.267z" fill="#ffc107"></path>
    <path d="M352.896 314.325L77.91 464.725a40.897 40.897 0 01-40.747-.64 31.446 31.446 0 01-2.773-1.92l235.947-227.2 82.559 79.36z" fill="#f44336"></path>
  </symbol>
</svg>