<svg width="150" height="36" viewBox="0 0 150 36" fill="none" xmlns="http://www.w3.org/2000/svg">
<path d="M0.0933115 35V34.51L0.681311 34.314C1.85731 33.922 2.44531 33.1053 2.44531 31.864V5.698C2.44531 5.012 2.33098 4.50567 2.10231 4.179C1.87364 3.85233 1.43264 3.60733 0.779311 3.444L0.0443115 3.248V2.758L8.66831 0.651001L9.45231 1.092L9.25631 8.001V14.126C10.3996 13.1787 11.6246 12.3783 12.9313 11.725C14.2706 11.039 15.7406 10.696 17.3413 10.696C19.4646 10.696 21.147 11.3003 22.3883 12.509C23.6623 13.7177 24.2993 15.5797 24.2993 18.095V31.913C24.2993 32.5663 24.43 33.089 24.6913 33.481C24.9526 33.873 25.41 34.167 26.0633 34.363L26.4553 34.51V35H14.9893V34.51L15.5773 34.363C16.7533 33.971 17.3413 33.138 17.3413 31.864V16.478C17.3413 15.1713 17.1126 14.273 16.6553 13.783C16.2306 13.293 15.463 13.048 14.3523 13.048C13.6336 13.048 12.8496 13.195 12.0003 13.489C11.151 13.7503 10.2853 14.224 9.40331 14.91V31.962C9.40331 33.236 9.99131 34.0527 11.1673 34.412L11.5593 34.51V35H0.0933115Z" fill="#28514F"/>
<path d="M35.237 35.735C33.3424 35.735 31.7417 35.196 30.435 34.118C29.161 33.04 28.524 31.4883 28.524 29.463C28.524 27.9277 29.308 26.523 30.876 25.249C32.444 23.9423 34.9104 22.9623 38.275 22.309C38.7977 22.211 39.3857 22.113 40.039 22.015C40.6924 21.8843 41.3784 21.7537 42.097 21.623V17.752C42.097 15.5307 41.8194 13.979 41.264 13.097C40.7414 12.1823 39.9084 11.725 38.765 11.725C37.981 11.725 37.3604 11.9863 36.903 12.509C36.4457 12.999 36.1517 13.8647 36.021 15.106L35.923 15.645C35.8577 17.0497 35.5147 18.0787 34.894 18.732C34.2734 19.3853 33.5057 19.712 32.591 19.712C31.7417 19.712 31.0394 19.4507 30.484 18.928C29.9287 18.4053 29.651 17.703 29.651 16.821C29.651 15.4817 30.1084 14.3547 31.023 13.44C31.9704 12.5253 33.2117 11.8393 34.747 11.382C36.2824 10.9247 37.9484 10.696 39.745 10.696C42.6524 10.696 44.89 11.4147 46.458 12.852C48.0587 14.2567 48.859 16.5597 48.859 19.761V30.59C48.859 32.06 49.545 32.795 50.917 32.795H51.995L52.436 33.187C51.8154 33.971 51.1294 34.5753 50.378 35C49.6594 35.4247 48.6304 35.637 47.291 35.637C45.8537 35.637 44.7104 35.3103 43.861 34.657C43.0444 33.971 42.5054 33.0727 42.244 31.962C41.264 33.0073 40.2514 33.9057 39.206 34.657C38.1934 35.3757 36.8704 35.735 35.237 35.735ZM38.226 32.746C38.8794 32.746 39.4837 32.599 40.039 32.305C40.627 31.9783 41.313 31.4883 42.097 30.835V22.603C41.7704 22.6683 41.4437 22.7337 41.117 22.799C40.7904 22.8643 40.4147 22.9297 39.99 22.995C38.4874 23.387 37.2787 24.0567 36.364 25.004C35.482 25.9187 35.041 27.16 35.041 28.728C35.041 30.0673 35.3514 31.08 35.972 31.766C36.5927 32.4193 37.344 32.746 38.226 32.746Z" fill="#28514F"/>
<path d="M53.3487 35V34.51L54.0837 34.314C54.737 34.118 55.178 33.824 55.4067 33.432C55.668 33.04 55.7987 32.5337 55.7987 31.913V16.576C55.7987 15.8573 55.668 15.3347 55.4067 15.008C55.178 14.6487 54.737 14.4037 54.0837 14.273L53.3487 14.077V13.587L61.7767 10.745L62.2667 11.235L62.7077 15.449V15.841C63.165 14.9263 63.753 14.0933 64.4717 13.342C65.223 12.558 66.0397 11.921 66.9217 11.431C67.8363 10.941 68.7347 10.696 69.6167 10.696C70.858 10.696 71.8053 11.039 72.4587 11.725C73.112 12.411 73.4387 13.2767 73.4387 14.322C73.4387 15.4327 73.112 16.2983 72.4587 16.919C71.838 17.507 71.0867 17.801 70.2047 17.801C68.8327 17.801 67.624 17.115 66.5787 15.743L66.4807 15.645C66.154 15.1877 65.7783 14.9427 65.3537 14.91C64.929 14.8447 64.537 15.0407 64.1777 15.498C63.851 15.792 63.5733 16.1513 63.3447 16.576C63.1487 16.968 62.9527 17.4253 62.7567 17.948V31.619C62.7567 32.9257 63.3283 33.7423 64.4717 34.069L66.0397 34.51V35H53.3487Z" fill="#28514F"/>
<path d="M82.3038 35.637L74.0228 35V34.51L74.5128 34.412C75.7868 34.118 76.4238 33.3013 76.4238 31.962V5.747C76.4238 5.061 76.3095 4.53833 76.0808 4.179C75.8848 3.81967 75.4602 3.57467 74.8068 3.444L74.1208 3.248V2.758L82.8428 0.651001L83.4308 1.092L83.2348 8.001V12.95C84.3128 12.1987 85.4888 11.6433 86.7628 11.284C88.0368 10.892 89.3272 10.696 90.6338 10.696C92.4958 10.696 94.1455 11.137 95.5828 12.019C97.0202 12.8683 98.1472 14.2077 98.9638 16.037C99.8132 17.8337 100.238 20.153 100.238 22.995C100.238 25.837 99.7642 28.2053 98.8168 30.1C97.9022 31.962 96.6608 33.3667 95.0928 34.314C93.5575 35.2613 91.8588 35.735 89.9968 35.735C88.7882 35.735 87.5632 35.5717 86.3218 35.245C85.1132 34.9183 84.0352 34.461 83.0878 33.873L82.3038 35.637ZM87.5468 34.069C88.5922 34.069 89.5068 33.7423 90.2908 33.089C91.0748 32.4357 91.6955 31.325 92.1528 29.757C92.6102 28.1563 92.8388 25.9677 92.8388 23.191C92.8388 20.4143 92.6265 18.2747 92.2018 16.772C91.7772 15.2693 91.1728 14.224 90.3888 13.636C89.6375 13.048 88.7228 12.754 87.6448 12.754C86.1095 12.754 84.6885 13.1787 83.3818 14.028V32.844C84.0025 33.236 84.6395 33.5463 85.2928 33.775C85.9462 33.971 86.6975 34.069 87.5468 34.069Z" fill="#28514F"/>
<path d="M115.081 35.735C112.598 35.735 110.442 35.2287 108.613 34.216C106.783 33.1707 105.362 31.7007 104.35 29.806C103.37 27.9113 102.88 25.69 102.88 23.142C102.88 20.594 103.402 18.389 104.448 16.527C105.526 14.665 106.979 13.2277 108.809 12.215C110.671 11.2023 112.761 10.696 115.081 10.696C117.4 10.696 119.474 11.2023 121.304 12.215C123.133 13.195 124.57 14.616 125.616 16.478C126.694 18.34 127.233 20.5613 127.233 23.142C127.233 25.7227 126.726 27.9603 125.714 29.855C124.734 31.717 123.329 33.1707 121.5 34.216C119.703 35.2287 117.563 35.735 115.081 35.735ZM115.081 34.755C116.224 34.755 117.139 34.4283 117.825 33.775C118.511 33.1217 119.001 31.962 119.295 30.296C119.621 28.63 119.785 26.278 119.785 23.24C119.785 20.1693 119.621 17.801 119.295 16.135C119.001 14.469 118.511 13.3093 117.825 12.656C117.139 12.0027 116.224 11.676 115.081 11.676C113.937 11.676 113.006 12.0027 112.288 12.656C111.602 13.3093 111.095 14.469 110.769 16.135C110.475 17.801 110.328 20.1693 110.328 23.24C110.328 26.278 110.475 28.63 110.769 30.296C111.095 31.962 111.602 33.1217 112.288 33.775C113.006 34.4283 113.937 34.755 115.081 34.755Z" fill="#28514F"/>
<path d="M129.385 35V34.51L130.12 34.314C130.773 34.118 131.214 33.824 131.443 33.432C131.704 33.04 131.835 32.5337 131.835 31.913V16.576C131.835 15.8573 131.704 15.3347 131.443 15.008C131.214 14.6487 130.773 14.4037 130.12 14.273L129.385 14.077V13.587L137.813 10.745L138.303 11.235L138.744 15.449V15.841C139.201 14.9263 139.789 14.0933 140.508 13.342C141.259 12.558 142.076 11.921 142.958 11.431C143.872 10.941 144.771 10.696 145.653 10.696C146.894 10.696 147.841 11.039 148.495 11.725C149.148 12.411 149.475 13.2767 149.475 14.322C149.475 15.4327 149.148 16.2983 148.495 16.919C147.874 17.507 147.123 17.801 146.241 17.801C144.869 17.801 143.66 17.115 142.615 15.743L142.517 15.645C142.19 15.1877 141.814 14.9427 141.39 14.91C140.965 14.8447 140.573 15.0407 140.214 15.498C139.887 15.792 139.609 16.1513 139.381 16.576C139.185 16.968 138.989 17.4253 138.793 17.948V31.619C138.793 32.9257 139.364 33.7423 140.508 34.069L142.076 34.51V35H129.385Z" fill="#28514F"/>
</svg>
